<svg id="visual" viewBox="0 0 675 900" width="675" height="900" xmlns="http://www.w3.org/2000/svg" xmlns:xlink="http://www.w3.org/1999/xlink" version="1.1"><path d="M0 541L14 531.7C28 522.3 56 503.7 84.2 505.2C112.3 506.7 140.7 528.3 168.8 544.5C197 560.7 225 571.3 253.2 569.2C281.3 567 309.7 552 337.8 555.8C366 559.7 394 582.3 422 588.5C450 594.7 478 584.3 506.2 580C534.3 575.7 562.7 577.3 590.8 570.5C619 563.7 647 548.3 661 540.7L675 533L675 901L661 901C647 901 619 901 590.8 901C562.7 901 534.3 901 506.2 901C478 901 450 901 422 901C394 901 366 901 337.8 901C309.7 901 281.3 901 253.2 901C225 901 197 901 168.8 901C140.7 901 112.3 901 84.2 901C56 901 28 901 14 901L0 901Z" fill="#bacfff"></path><path d="M0 678L14 696.8C28 715.7 56 753.3 84.2 750.3C112.3 747.3 140.7 703.7 168.8 700.8C197 698 225 736 253.2 752.8C281.3 769.7 309.7 765.3 337.8 754.7C366 744 394 727 422 708C450 689 478 668 506.2 663C534.3 658 562.7 669 590.8 678.2C619 687.3 647 694.7 661 698.3L675 702L675 901L661 901C647 901 619 901 590.8 901C562.7 901 534.3 901 506.2 901C478 901 450 901 422 901C394 901 366 901 337.8 901C309.7 901 281.3 901 253.2 901C225 901 197 901 168.8 901C140.7 901 112.3 901 84.2 901C56 901 28 901 14 901L0 901Z" fill="#93adff"></path></svg>